<svg width="387" height="100" viewBox="0 0 387 100" fill="none" xmlns="http://www.w3.org/2000/svg">
<path d="M20.4062 49.5H33.4688C35.6146 49.5 37.4271 48.7812 38.9062 47.3438C40.4062 45.8854 41.1562 43.8333 41.1562 41.1875C41.1562 39.2083 40.375 37.4375 38.8125 35.875C37.25 34.2917 35.4688 33.5 33.4688 33.5H14.1562V74H11.9062V31.25H33.4688C36.0938 31.25 38.4062 32.2604 40.4062 34.2812C42.4062 36.3021 43.4062 38.6042 43.4062 41.1875C43.4062 44.375 42.4375 46.9375 40.5 48.875C38.5625 50.7917 36.2188 51.75 33.4688 51.75H20.4062V49.5ZM20.4062 54H33.4688C35.6354 54 37.6354 53.4792 39.4688 52.4375C41.3229 51.375 42.8125 49.8542 43.9375 47.875C45.0833 45.8958 45.6562 43.6667 45.6562 41.1875C45.6562 37.9792 44.4271 35.1458 41.9688 32.6875C39.5312 30.2292 36.6979 29 33.4688 29H9.65625V74H7.40625V26.75H33.4688C35.9896 26.75 38.3646 27.4167 40.5938 28.75C42.8229 30.0833 44.5938 31.8646 45.9062 34.0938C47.2396 36.3229 47.9062 38.6875 47.9062 41.1875C47.9062 44.0208 47.2396 46.6042 45.9062 48.9375C44.5729 51.25 42.8021 53.0521 40.5938 54.3438C38.4062 55.6146 36.0312 56.25 33.4688 56.25H20.4062V54ZM20.4062 58.5H33.4688C35.6979 58.5 37.8333 58.0625 39.875 57.1875C41.9167 56.2917 43.6875 55.0938 45.1875 53.5938C46.7083 52.0729 47.9167 50.2396 48.8125 48.0938C49.7083 45.9271 50.1562 43.625 50.1562 41.1875C50.1562 38.2708 49.3958 35.5312 47.875 32.9688C46.3542 30.3854 44.3021 28.3333 41.7188 26.8125C39.1562 25.2708 36.4062 24.5 33.4688 24.5H5.15625V74H2.90625V22.25H33.4688C36.8021 22.25 39.9271 23.125 42.8438 24.875C45.7604 26.6042 48.0833 28.9271 49.8125 31.8438C51.5417 34.7604 52.4062 37.875 52.4062 41.1875C52.4062 44.1458 51.8958 46.875 50.875 49.375C49.8542 51.8542 48.4792 53.9167 46.75 55.5625C45.0208 57.2083 43.0104 58.4896 40.7188 59.4062C38.4271 60.3021 36.0104 60.75 33.4688 60.75H20.4062V58.5ZM18.6562 74H16.4062V35.75H33.4688C34.9479 35.75 36.2188 36.2917 37.2812 37.375C38.3646 38.4583 38.9062 39.7292 38.9062 41.1875C38.9062 45.2292 37.0938 47.25 33.4688 47.25H20.4062V45H33.4688C34.4688 45 35.25 44.7188 35.8125 44.1562C36.375 43.5938 36.6562 42.6042 36.6562 41.1875C36.6562 40.2708 36.3438 39.5104 35.7188 38.9062C35.1146 38.3021 34.3646 38 33.4688 38H18.6562V74ZM75.5625 39.375C73.1458 41.7917 71.9375 44.7083 71.9375 48.125C71.9375 51.5417 73.1458 54.4583 75.5625 56.875C77.9792 59.2917 80.8958 60.5 84.3125 60.5C87.7292 60.5 90.6458 59.2917 93.0625 56.875C95.4792 54.4583 96.6875 51.5417 96.6875 48.125C96.6875 44.7083 95.4792 41.7917 93.0625 39.375C90.6458 36.9583 87.7292 35.75 84.3125 35.75C80.8958 35.75 77.9792 36.9583 75.5625 39.375ZM70.8438 53.8125C70.0729 52 69.6875 50.1042 69.6875 48.125C69.6875 46.1458 70.0729 44.2604 70.8438 42.4688C71.6146 40.6562 72.6562 39.0938 73.9688 37.7812C75.2812 36.4688 76.8333 35.4271 78.625 34.6562C80.4375 33.8854 82.3333 33.5 84.3125 33.5C86.2917 33.5 88.1771 33.8854 89.9688 34.6562C91.7812 35.4271 93.3438 36.4688 94.6562 37.7812C95.9688 39.0938 97.0104 40.6562 97.7812 42.4688C98.5521 44.2604 98.9375 46.1458 98.9375 48.125C98.9375 50.1042 98.5521 52 97.7812 53.8125C97.0104 55.6042 95.9688 57.1562 94.6562 58.4688C93.3438 59.7812 91.7812 60.8229 89.9688 61.5938C88.1771 62.3646 86.2917 62.75 84.3125 62.75C82.3333 62.75 80.4375 62.3646 78.625 61.5938C76.8333 60.8229 75.2812 59.7812 73.9688 58.4688C72.6562 57.1562 71.6146 55.6042 70.8438 53.8125ZM69.6875 39.6562C68.1875 42.2396 67.4375 45.0625 67.4375 48.125C67.4375 51.1875 68.1875 54.0104 69.6875 56.5938C71.2083 59.1771 73.2604 61.2292 75.8438 62.75C78.4271 64.25 81.25 65 84.3125 65C87.375 65 90.1979 64.25 92.7812 62.75C95.3646 61.2292 97.4062 59.1771 98.9062 56.5938C100.427 54.0104 101.188 51.1875 101.188 48.125C101.188 45.0625 100.427 42.2396 98.9062 39.6562C97.4062 37.0729 95.3646 35.0312 92.7812 33.5312C90.1979 32.0104 87.375 31.25 84.3125 31.25C81.25 31.25 78.4271 32.0104 75.8438 33.5312C73.2604 35.0312 71.2083 37.0729 69.6875 39.6562ZM67.75 57.7188C66.0417 54.7812 65.1875 51.5833 65.1875 48.125C65.1875 44.6667 66.0417 41.4688 67.75 38.5312C69.4583 35.5938 71.7812 33.2708 74.7188 31.5625C77.6562 29.8542 80.8542 29 84.3125 29C87.7708 29 90.9688 29.8542 93.9062 31.5625C96.8438 33.2708 99.1667 35.5938 100.875 38.5312C102.583 41.4688 103.438 44.6667 103.438 48.125C103.438 51.5833 102.583 54.7812 100.875 57.7188C99.1667 60.6562 96.8438 62.9792 93.9062 64.6875C90.9688 66.3958 87.7708 67.25 84.3125 67.25C80.8542 67.25 77.6562 66.3958 74.7188 64.6875C71.7812 62.9792 69.4583 60.6562 67.75 57.7188ZM64.625 39.8125C63.5 42.4583 62.9375 45.2292 62.9375 48.125C62.9375 51.0208 63.5 53.7917 64.625 56.4375C65.75 59.0833 67.2604 61.3646 69.1562 63.2812C71.0729 65.1771 73.3542 66.6875 76 67.8125C78.6458 68.9375 81.4167 69.5 84.3125 69.5C87.2083 69.5 89.9792 68.9375 92.625 67.8125C95.2708 66.6875 97.5417 65.1771 99.4375 63.2812C101.354 61.3646 102.875 59.0833 104 56.4375C105.125 53.7917 105.688 51.0208 105.688 48.125C105.688 45.2292 105.125 42.4583 104 39.8125C102.875 37.1667 101.354 34.8958 99.4375 33C97.5417 31.0833 95.2708 29.5625 92.625 28.4375C89.9792 27.3125 87.2083 26.75 84.3125 26.75C81.4167 26.75 78.6458 27.3125 76 28.4375C73.3542 29.5625 71.0729 31.0833 69.1562 33C67.2604 34.8958 65.75 37.1667 64.625 39.8125ZM63.8438 59.9688C61.7396 56.3438 60.6875 52.3958 60.6875 48.125C60.6875 43.8542 61.7396 39.9062 63.8438 36.2812C65.9688 32.6562 68.8438 29.7917 72.4688 27.6875C76.0938 25.5625 80.0417 24.5 84.3125 24.5C88.5833 24.5 92.5312 25.5625 96.1562 27.6875C99.7812 29.7917 102.646 32.6562 104.75 36.2812C106.875 39.9062 107.938 43.8542 107.938 48.125C107.938 52.3958 106.875 56.3438 104.75 59.9688C102.646 63.5938 99.7812 66.4688 96.1562 68.5938C92.5312 70.6979 88.5833 71.75 84.3125 71.75C80.0417 71.75 76.0938 70.6979 72.4688 68.5938C68.8438 66.4688 65.9688 63.5938 63.8438 59.9688ZM60.4688 38.0938C59.1146 41.2812 58.4375 44.625 58.4375 48.125C58.4375 51.625 59.1146 54.9792 60.4688 58.1875C61.8438 61.375 63.6875 64.125 66 66.4375C68.3125 68.75 71.0625 70.5938 74.25 71.9688C77.4583 73.3229 80.8125 74 84.3125 74C87.8125 74 91.1562 73.3229 94.3438 71.9688C97.5521 70.5938 100.312 68.75 102.625 66.4375C104.938 64.125 106.771 61.375 108.125 58.1875C109.5 54.9792 110.188 51.625 110.188 48.125C110.188 44.625 109.5 41.2812 108.125 38.0938C106.771 34.8854 104.938 32.125 102.625 29.8125C100.312 27.5 97.5521 25.6667 94.3438 24.3125C91.1562 22.9375 87.8125 22.25 84.3125 22.25C80.8125 22.25 77.4583 22.9375 74.25 24.3125C71.0625 25.6667 68.3125 27.5 66 29.8125C63.6875 32.125 61.8438 34.8854 60.4688 38.0938ZM58.4062 59.0625C56.9271 55.5833 56.1875 51.9375 56.1875 48.125C56.1875 44.3125 56.9271 40.6771 58.4062 37.2188C59.9062 33.7396 61.9062 30.75 64.4062 28.25C66.9271 25.7292 69.9167 23.7292 73.375 22.25C76.8542 20.75 80.5 20 84.3125 20C88.125 20 91.7604 20.75 95.2188 22.25C98.6979 23.7292 101.688 25.7292 104.188 28.25C106.708 30.75 108.708 33.7396 110.188 37.2188C111.688 40.6771 112.438 44.3125 112.438 48.125C112.438 51.9375 111.688 55.5833 110.188 59.0625C108.708 62.5208 106.708 65.5104 104.188 68.0312C101.688 70.5312 98.6979 72.5208 95.2188 74C91.7604 75.5 88.125 76.25 84.3125 76.25C80.5 76.25 76.8542 75.5 73.375 74C69.9167 72.5208 66.9271 70.5312 64.4062 68.0312C61.9062 65.5104 59.9062 62.5208 58.4062 59.0625ZM153.844 49.0938L151.594 45.375V22.25H153.844V49.0938ZM158.344 56.4688L156.094 52.6875V22.25H158.344V56.4688ZM162.844 63.9375L160.594 60.125V22.25H162.844V63.9375ZM130.594 47.1562L132.844 50.875V74H130.594V47.1562ZM126.094 39.7812L128.344 43.5625V74H126.094V39.7812ZM121.594 32.3125L123.844 36.125V74H121.594V32.3125ZM122.375 22.25H125L156.812 74H154.188L122.375 22.25ZM127.688 22.25H130.344L162.125 74H159.438L127.688 22.25ZM132.969 22.25H135.594L165.094 70.3438V22.25H167.344V74C167.344 74 166.458 74 164.688 74L132.969 22.25ZM119.344 25.9062V74H117.094V22.25C117.094 22.25 117.99 22.25 119.781 22.25L151.5 74H148.906L119.344 25.9062ZM186.781 60.5V35.75C186.781 35.75 191.896 35.75 202.125 35.75C204.604 35.75 206.729 36.9688 208.5 39.4062C210.292 41.8229 211.188 44.7292 211.188 48.125C211.188 51.5417 210.292 54.4583 208.5 56.875C206.729 59.2917 204.604 60.5 202.125 60.5H186.781ZM189.031 58.25H202.125C203.979 58.25 205.562 57.2604 206.875 55.2812C208.208 53.3021 208.875 50.9167 208.875 48.125C208.875 45.3125 208.208 42.9271 206.875 40.9688C205.562 38.9896 203.979 38 202.125 38H189.031V58.25ZM184.531 62.75H202.125C205.229 62.75 207.896 61.3229 210.125 58.4688C212.375 55.5938 213.5 52.1458 213.5 48.125C213.5 45.4792 212.979 43.0312 211.938 40.7812C210.917 38.5312 209.531 36.7604 207.781 35.4688C206.052 34.1562 204.167 33.5 202.125 33.5H184.531V62.75ZM182.281 65V31.25H202.125C204.562 31.25 206.833 32 208.938 33.5C211.042 35 212.708 37.0521 213.938 39.6562C215.188 42.2396 215.812 45.0625 215.812 48.125C215.812 51.1667 215.188 53.9896 213.938 56.5938C212.708 59.1979 211.042 61.25 208.938 62.75C206.833 64.25 204.562 65 202.125 65H182.281ZM180.031 67.25H202.125C204.979 67.25 207.625 66.3958 210.062 64.6875C212.521 62.9792 214.479 60.6562 215.938 57.7188C217.396 54.7812 218.125 51.5833 218.125 48.125C218.125 44.6875 217.396 41.5 215.938 38.5625C214.479 35.6042 212.521 33.2708 210.062 31.5625C207.604 29.8542 204.958 29 202.125 29H180.031V67.25ZM177.781 69.5V26.75H202.125C205.375 26.75 208.406 27.7083 211.219 29.625C214.031 31.5208 216.271 34.1146 217.938 37.4062C219.604 40.6979 220.438 44.2708 220.438 48.125C220.438 51.9792 219.604 55.5521 217.938 58.8438C216.271 62.1354 214.031 64.7396 211.219 66.6562C208.406 68.5521 205.375 69.5 202.125 69.5H177.781ZM175.531 71.75H202.125C204.854 71.75 207.49 71.125 210.031 69.875C212.573 68.625 214.771 66.9479 216.625 64.8438C218.479 62.7396 219.958 60.2292 221.062 57.3125C222.188 54.375 222.75 51.3125 222.75 48.125C222.75 44.9375 222.188 41.8854 221.062 38.9688C219.958 36.0521 218.479 33.5417 216.625 31.4375C214.771 29.3125 212.573 27.625 210.031 26.375C207.49 25.125 204.854 24.5 202.125 24.5H175.531V71.75ZM202.125 74H173.281V22.25H202.125C206.188 22.25 209.979 23.4062 213.5 25.7188C217.021 28.0312 219.823 31.1771 221.906 35.1562C224.01 39.1354 225.062 43.4583 225.062 48.125C225.062 51.625 224.438 54.9792 223.188 58.1875C221.958 61.375 220.312 64.125 218.25 66.4375C216.188 68.75 213.74 70.5938 210.906 71.9688C208.094 73.3229 205.167 74 202.125 74ZM241.281 74H239.031V22.25H241.281V74ZM236.781 74H234.531V22.25H236.781V74ZM232.281 74H230.031V22.25H232.281V74ZM245.781 62.75H269.719V65H245.781V67.25H269.719V69.5H245.781V71.75H269.719V74H243.531V22.25H269.719V24.5H245.781V26.75H269.719V29H245.781V31.25H269.719V33.5H245.781V42.5H258.062V44.75H245.781V47H258.062V49.25H245.781V51.5H258.062V53.75H245.781V62.75ZM292.281 48.25H305.844C307.906 48.25 309.646 47.5833 311.062 46.25C312.5 44.9167 313.219 43.0208 313.219 40.5625C313.219 38.75 312.469 37.125 310.969 35.6875C309.469 34.2292 307.76 33.5 305.844 33.5H286.531V74H284.281V31.25H305.844C308.385 31.25 310.625 32.1979 312.562 34.0938C314.5 35.9688 315.469 38.125 315.469 40.5625C315.469 43.5625 314.531 45.9688 312.656 47.7812C310.781 49.5938 308.51 50.5 305.844 50.5H292.281V48.25ZM292.281 52.75H305.844C309.094 52.75 311.885 51.6146 314.219 49.3438C316.552 47.0521 317.719 44.125 317.719 40.5625C317.719 37.5 316.521 34.8125 314.125 32.5C311.75 30.1667 308.99 29 305.844 29H282.031V74H279.781V26.75H305.844C308.323 26.75 310.646 27.3854 312.812 28.6562C315 29.9271 316.74 31.6354 318.031 33.7812C319.323 35.9062 319.969 38.1667 319.969 40.5625C319.969 44.6667 318.573 48.1042 315.781 50.875C313.01 53.625 309.698 55 305.844 55H292.281V52.75ZM292.281 57.25H305.844C308.76 57.25 311.469 56.5312 313.969 55.0938C316.469 53.6562 318.469 51.6562 319.969 49.0938C321.469 46.5104 322.219 43.6667 322.219 40.5625C322.219 37.75 321.469 35.1146 319.969 32.6562C318.49 30.1771 316.49 28.1979 313.969 26.7188C311.448 25.2396 308.74 24.5 305.844 24.5H277.531V74H275.281V22.25H305.844C309.115 22.25 312.188 23.0938 315.062 24.7812C317.938 26.4479 320.219 28.6979 321.906 31.5312C323.615 34.3438 324.469 37.3542 324.469 40.5625C324.469 44.2708 323.667 47.5312 322.062 50.3438C320.479 53.1562 318.323 55.3542 315.594 56.9375L321.406 74H319.031L313.469 58C312.635 58.3333 312 58.5625 311.562 58.6875L316.781 74H314.406L309.312 59.2188C309.125 59.2604 308.458 59.3333 307.312 59.4375L312.156 74H309.781L305 59.5H302.969L307.531 74H305.156L300.562 59.5H292.281V57.25ZM291.031 74H288.781V35.75H305.844C307.24 35.75 308.438 36.2292 309.438 37.1875C310.458 38.125 310.969 39.25 310.969 40.5625C310.969 44.1875 309.26 46 305.844 46H292.281V43.75H305.844C306.74 43.75 307.438 43.5208 307.938 43.0625C308.458 42.5833 308.719 41.75 308.719 40.5625C308.719 39.8333 308.438 39.2292 307.875 38.75C307.333 38.25 306.656 38 305.844 38H291.031V74ZM346.9 39.375C344.483 41.7917 343.275 44.7083 343.275 48.125C343.275 51.5417 344.483 54.4583 346.9 56.875C349.317 59.2917 352.233 60.5 355.65 60.5C359.067 60.5 361.983 59.2917 364.4 56.875C366.817 54.4583 368.025 51.5417 368.025 48.125C368.025 44.7083 366.817 41.7917 364.4 39.375C361.983 36.9583 359.067 35.75 355.65 35.75C352.233 35.75 349.317 36.9583 346.9 39.375ZM342.181 53.8125C341.41 52 341.025 50.1042 341.025 48.125C341.025 46.1458 341.41 44.2604 342.181 42.4688C342.952 40.6562 343.994 39.0938 345.306 37.7812C346.619 36.4688 348.171 35.4271 349.962 34.6562C351.775 33.8854 353.671 33.5 355.65 33.5C357.629 33.5 359.515 33.8854 361.306 34.6562C363.119 35.4271 364.681 36.4688 365.994 37.7812C367.306 39.0938 368.348 40.6562 369.119 42.4688C369.89 44.2604 370.275 46.1458 370.275 48.125C370.275 50.1042 369.89 52 369.119 53.8125C368.348 55.6042 367.306 57.1562 365.994 58.4688C364.681 59.7812 363.119 60.8229 361.306 61.5938C359.515 62.3646 357.629 62.75 355.65 62.75C353.671 62.75 351.775 62.3646 349.962 61.5938C348.171 60.8229 346.619 59.7812 345.306 58.4688C343.994 57.1562 342.952 55.6042 342.181 53.8125ZM341.025 39.6562C339.525 42.2396 338.775 45.0625 338.775 48.125C338.775 51.1875 339.525 54.0104 341.025 56.5938C342.546 59.1771 344.598 61.2292 347.181 62.75C349.765 64.25 352.587 65 355.65 65C358.712 65 361.535 64.25 364.119 62.75C366.702 61.2292 368.744 59.1771 370.244 56.5938C371.765 54.0104 372.525 51.1875 372.525 48.125C372.525 45.0625 371.765 42.2396 370.244 39.6562C368.744 37.0729 366.702 35.0312 364.119 33.5312C361.535 32.0104 358.712 31.25 355.65 31.25C352.587 31.25 349.765 32.0104 347.181 33.5312C344.598 35.0312 342.546 37.0729 341.025 39.6562ZM339.087 57.7188C337.379 54.7812 336.525 51.5833 336.525 48.125C336.525 44.6667 337.379 41.4688 339.087 38.5312C340.796 35.5938 343.119 33.2708 346.056 31.5625C348.994 29.8542 352.192 29 355.65 29C359.108 29 362.306 29.8542 365.244 31.5625C368.181 33.2708 370.504 35.5938 372.212 38.5312C373.921 41.4688 374.775 44.6667 374.775 48.125C374.775 51.5833 373.921 54.7812 372.212 57.7188C370.504 60.6562 368.181 62.9792 365.244 64.6875C362.306 66.3958 359.108 67.25 355.65 67.25C352.192 67.25 348.994 66.3958 346.056 64.6875C343.119 62.9792 340.796 60.6562 339.087 57.7188ZM335.962 39.8125C334.837 42.4583 334.275 45.2292 334.275 48.125C334.275 51.0208 334.837 53.7917 335.962 56.4375C337.087 59.0833 338.598 61.3646 340.494 63.2812C342.41 65.1771 344.692 66.6875 347.337 67.8125C349.983 68.9375 352.754 69.5 355.65 69.5C358.546 69.5 361.317 68.9375 363.962 67.8125C366.608 66.6875 368.879 65.1771 370.775 63.2812C372.692 61.3646 374.212 59.0833 375.337 56.4375C376.462 53.7917 377.025 51.0208 377.025 48.125C377.025 45.2292 376.462 42.4583 375.337 39.8125C374.212 37.1667 372.692 34.8958 370.775 33C368.879 31.0833 366.608 29.5625 363.962 28.4375C361.317 27.3125 358.546 26.75 355.65 26.75C352.754 26.75 349.983 27.3125 347.337 28.4375C344.692 29.5625 342.41 31.0833 340.494 33C338.598 34.8958 337.087 37.1667 335.962 39.8125ZM335.181 59.9688C333.077 56.3438 332.025 52.3958 332.025 48.125C332.025 43.8542 333.077 39.9062 335.181 36.2812C337.306 32.6562 340.181 29.7917 343.806 27.6875C347.431 25.5625 351.379 24.5 355.65 24.5C359.921 24.5 363.869 25.5625 367.494 27.6875C371.119 29.7917 373.983 32.6562 376.087 36.2812C378.212 39.9062 379.275 43.8542 379.275 48.125C379.275 52.3958 378.212 56.3438 376.087 59.9688C373.983 63.5938 371.119 66.4688 367.494 68.5938C363.869 70.6979 359.921 71.75 355.65 71.75C351.379 71.75 347.431 70.6979 343.806 68.5938C340.181 66.4688 337.306 63.5938 335.181 59.9688ZM331.806 38.0938C330.452 41.2812 329.775 44.625 329.775 48.125C329.775 51.625 330.452 54.9792 331.806 58.1875C333.181 61.375 335.025 64.125 337.337 66.4375C339.65 68.75 342.4 70.5938 345.587 71.9688C348.796 73.3229 352.15 74 355.65 74C359.15 74 362.494 73.3229 365.681 71.9688C368.89 70.5938 371.65 68.75 373.962 66.4375C376.275 64.125 378.108 61.375 379.462 58.1875C380.837 54.9792 381.525 51.625 381.525 48.125C381.525 44.625 380.837 41.2812 379.462 38.0938C378.108 34.8854 376.275 32.125 373.962 29.8125C371.65 27.5 368.89 25.6667 365.681 24.3125C362.494 22.9375 359.15 22.25 355.65 22.25C352.15 22.25 348.796 22.9375 345.587 24.3125C342.4 25.6667 339.65 27.5 337.337 29.8125C335.025 32.125 333.181 34.8854 331.806 38.0938ZM329.744 59.0625C328.265 55.5833 327.525 51.9375 327.525 48.125C327.525 44.3125 328.265 40.6771 329.744 37.2188C331.244 33.7396 333.244 30.75 335.744 28.25C338.265 25.7292 341.254 23.7292 344.712 22.25C348.192 20.75 351.837 20 355.65 20C359.462 20 363.098 20.75 366.556 22.25C370.035 23.7292 373.025 25.7292 375.525 28.25C378.046 30.75 380.046 33.7396 381.525 37.2188C383.025 40.6771 383.775 44.3125 383.775 48.125C383.775 51.9375 383.025 55.5833 381.525 59.0625C380.046 62.5208 378.046 65.5104 375.525 68.0312C373.025 70.5312 370.035 72.5208 366.556 74C363.098 75.5 359.462 76.25 355.65 76.25C351.837 76.25 348.192 75.5 344.712 74C341.254 72.5208 338.265 70.5312 335.744 68.0312C333.244 65.5104 331.244 62.5208 329.744 59.0625Z" fill="black"/>
</svg>
